<?xml version="1.0" encoding="UTF-8" standalone="no"?>
<svg width="290mm" height="195mm" viewBox="0 0 290 195" version="1.1" id="svg5" xmlns="http://www.w3.org/2000/svg" xmlns:svg="http://www.w3.org/2000/svg">
<g id="checkers">
<rect width="30" height="30" x="10" y="7.5"></rect>
<rect width="30" height="30" x="70" y="7.5"></rect>
<rect width="30" height="30" x="130" y="7.5"></rect>
<rect width="30" height="30" x="190" y="7.5"></rect>
<rect width="30" height="30" x="250" y="7.5"></rect>
<rect width="30" height="30" x="40" y="37.5"></rect>
<rect width="30" height="30" x="100" y="37.5"></rect>
<rect width="30" height="30" x="160" y="37.5"></rect>
<rect width="30" height="30" x="220" y="37.5"></rect>
<rect width="30" height="30" x="10" y="67.5"></rect>
<rect width="30" height="30" x="70" y="67.5"></rect>
<rect width="30" height="30" x="130" y="67.5"></rect>
<rect width="30" height="30" x="190" y="67.5"></rect>
<rect width="30" height="30" x="250" y="67.5"></rect>
<rect width="30" height="30" x="40" y="97.5"></rect>
<rect width="30" height="30" x="100" y="97.5"></rect>
<rect width="30" height="30" x="160" y="97.5"></rect>
<rect width="30" height="30" x="220" y="97.5"></rect>
<rect width="30" height="30" x="10" y="127.5"></rect>
<rect width="30" height="30" x="70" y="127.5"></rect>
<rect width="30" height="30" x="130" y="127.5"></rect>
<rect width="30" height="30" x="190" y="127.5"></rect>
<rect width="30" height="30" x="250" y="127.5"></rect>
<rect width="30" height="30" x="40" y="157.5"></rect>
<rect width="30" height="30" x="100" y="157.5"></rect>
<rect width="30" height="30" x="160" y="157.5"></rect>
<rect width="30" height="30" x="220" y="157.5"></rect>

</g>
</svg>
