<?xml version="1.0" encoding="UTF-8" standalone="no"?>
<svg width="410mm" height="290mm" viewBox="0 0 410 290" version="1.1" id="svg5" xmlns="http://www.w3.org/2000/svg" xmlns:svg="http://www.w3.org/2000/svg">
<g id="checkers">
<rect width="25" height="25" x="5" y="7.5"></rect>
<rect width="25" height="25" x="55" y="7.5"></rect>
<rect width="25" height="25" x="105" y="7.5"></rect>
<rect width="25" height="25" x="155" y="7.5"></rect>
<rect width="25" height="25" x="205" y="7.5"></rect>
<rect width="25" height="25" x="255" y="7.5"></rect>
<rect width="25" height="25" x="305" y="7.5"></rect>
<rect width="25" height="25" x="355" y="7.5"></rect>
<rect width="25" height="25" x="30" y="32.5"></rect>
<rect width="25" height="25" x="80" y="32.5"></rect>
<rect width="25" height="25" x="130" y="32.5"></rect>
<rect width="25" height="25" x="180" y="32.5"></rect>
<rect width="25" height="25" x="230" y="32.5"></rect>
<rect width="25" height="25" x="280" y="32.5"></rect>
<rect width="25" height="25" x="330" y="32.5"></rect>
<rect width="25" height="25" x="380" y="32.5"></rect>
<rect width="25" height="25" x="5" y="57.5"></rect>
<rect width="25" height="25" x="55" y="57.5"></rect>
<rect width="25" height="25" x="105" y="57.5"></rect>
<rect width="25" height="25" x="155" y="57.5"></rect>
<rect width="25" height="25" x="205" y="57.5"></rect>
<rect width="25" height="25" x="255" y="57.5"></rect>
<rect width="25" height="25" x="305" y="57.5"></rect>
<rect width="25" height="25" x="355" y="57.5"></rect>
<rect width="25" height="25" x="30" y="82.5"></rect>
<rect width="25" height="25" x="80" y="82.5"></rect>
<rect width="25" height="25" x="130" y="82.5"></rect>
<rect width="25" height="25" x="180" y="82.5"></rect>
<rect width="25" height="25" x="230" y="82.5"></rect>
<rect width="25" height="25" x="280" y="82.5"></rect>
<rect width="25" height="25" x="330" y="82.5"></rect>
<rect width="25" height="25" x="380" y="82.5"></rect>
<rect width="25" height="25" x="5" y="107.5"></rect>
<rect width="25" height="25" x="55" y="107.5"></rect>
<rect width="25" height="25" x="105" y="107.5"></rect>
<rect width="25" height="25" x="155" y="107.5"></rect>
<rect width="25" height="25" x="205" y="107.5"></rect>
<rect width="25" height="25" x="255" y="107.5"></rect>
<rect width="25" height="25" x="305" y="107.5"></rect>
<rect width="25" height="25" x="355" y="107.5"></rect>
<rect width="25" height="25" x="30" y="132.5"></rect>
<rect width="25" height="25" x="80" y="132.5"></rect>
<rect width="25" height="25" x="130" y="132.5"></rect>
<rect width="25" height="25" x="180" y="132.5"></rect>
<rect width="25" height="25" x="230" y="132.5"></rect>
<rect width="25" height="25" x="280" y="132.5"></rect>
<rect width="25" height="25" x="330" y="132.5"></rect>
<rect width="25" height="25" x="380" y="132.5"></rect>
<rect width="25" height="25" x="5" y="157.5"></rect>
<rect width="25" height="25" x="55" y="157.5"></rect>
<rect width="25" height="25" x="105" y="157.5"></rect>
<rect width="25" height="25" x="155" y="157.5"></rect>
<rect width="25" height="25" x="205" y="157.5"></rect>
<rect width="25" height="25" x="255" y="157.5"></rect>
<rect width="25" height="25" x="305" y="157.5"></rect>
<rect width="25" height="25" x="355" y="157.5"></rect>
<rect width="25" height="25" x="30" y="182.5"></rect>
<rect width="25" height="25" x="80" y="182.5"></rect>
<rect width="25" height="25" x="130" y="182.5"></rect>
<rect width="25" height="25" x="180" y="182.5"></rect>
<rect width="25" height="25" x="230" y="182.5"></rect>
<rect width="25" height="25" x="280" y="182.5"></rect>
<rect width="25" height="25" x="330" y="182.5"></rect>
<rect width="25" height="25" x="380" y="182.5"></rect>
<rect width="25" height="25" x="5" y="207.5"></rect>
<rect width="25" height="25" x="55" y="207.5"></rect>
<rect width="25" height="25" x="105" y="207.5"></rect>
<rect width="25" height="25" x="155" y="207.5"></rect>
<rect width="25" height="25" x="205" y="207.5"></rect>
<rect width="25" height="25" x="255" y="207.5"></rect>
<rect width="25" height="25" x="305" y="207.5"></rect>
<rect width="25" height="25" x="355" y="207.5"></rect>
<rect width="25" height="25" x="30" y="232.5"></rect>
<rect width="25" height="25" x="80" y="232.5"></rect>
<rect width="25" height="25" x="130" y="232.5"></rect>
<rect width="25" height="25" x="180" y="232.5"></rect>
<rect width="25" height="25" x="230" y="232.5"></rect>
<rect width="25" height="25" x="280" y="232.5"></rect>
<rect width="25" height="25" x="330" y="232.5"></rect>
<rect width="25" height="25" x="380" y="232.5"></rect>
<rect width="25" height="25" x="5" y="257.5"></rect>
<rect width="25" height="25" x="55" y="257.5"></rect>
<rect width="25" height="25" x="105" y="257.5"></rect>
<rect width="25" height="25" x="155" y="257.5"></rect>
<rect width="25" height="25" x="205" y="257.5"></rect>
<rect width="25" height="25" x="255" y="257.5"></rect>
<rect width="25" height="25" x="305" y="257.5"></rect>
<rect width="25" height="25" x="355" y="257.5"></rect>

</g>
</svg>
