<?xml version="1.0" encoding="UTF-8" standalone="no"?>
<svg width="290mm" height="200mm" viewBox="0 0 290 200" version="1.1" id="svg5" xmlns="http://www.w3.org/2000/svg" xmlns:svg="http://www.w3.org/2000/svg">
<g id="checkers">
<rect width="25" height="25" x="7.5" y="0"></rect>
<rect width="25" height="25" x="57.5" y="0"></rect>
<rect width="25" height="25" x="107.5" y="0"></rect>
<rect width="25" height="25" x="157.5" y="0"></rect>
<rect width="25" height="25" x="207.5" y="0"></rect>
<rect width="25" height="25" x="257.5" y="0"></rect>
<rect width="25" height="25" x="32.5" y="25"></rect>
<rect width="25" height="25" x="82.5" y="25"></rect>
<rect width="25" height="25" x="132.5" y="25"></rect>
<rect width="25" height="25" x="182.5" y="25"></rect>
<rect width="25" height="25" x="232.5" y="25"></rect>
<rect width="25" height="25" x="7.5" y="50"></rect>
<rect width="25" height="25" x="57.5" y="50"></rect>
<rect width="25" height="25" x="107.5" y="50"></rect>
<rect width="25" height="25" x="157.5" y="50"></rect>
<rect width="25" height="25" x="207.5" y="50"></rect>
<rect width="25" height="25" x="257.5" y="50"></rect>
<rect width="25" height="25" x="32.5" y="75"></rect>
<rect width="25" height="25" x="82.5" y="75"></rect>
<rect width="25" height="25" x="132.5" y="75"></rect>
<rect width="25" height="25" x="182.5" y="75"></rect>
<rect width="25" height="25" x="232.5" y="75"></rect>
<rect width="25" height="25" x="7.5" y="100"></rect>
<rect width="25" height="25" x="57.5" y="100"></rect>
<rect width="25" height="25" x="107.5" y="100"></rect>
<rect width="25" height="25" x="157.5" y="100"></rect>
<rect width="25" height="25" x="207.5" y="100"></rect>
<rect width="25" height="25" x="257.5" y="100"></rect>
<rect width="25" height="25" x="32.5" y="125"></rect>
<rect width="25" height="25" x="82.5" y="125"></rect>
<rect width="25" height="25" x="132.5" y="125"></rect>
<rect width="25" height="25" x="182.5" y="125"></rect>
<rect width="25" height="25" x="232.5" y="125"></rect>
<rect width="25" height="25" x="7.5" y="150"></rect>
<rect width="25" height="25" x="57.5" y="150"></rect>
<rect width="25" height="25" x="107.5" y="150"></rect>
<rect width="25" height="25" x="157.5" y="150"></rect>
<rect width="25" height="25" x="207.5" y="150"></rect>
<rect width="25" height="25" x="257.5" y="150"></rect>
<rect width="25" height="25" x="32.5" y="175"></rect>
<rect width="25" height="25" x="82.5" y="175"></rect>
<rect width="25" height="25" x="132.5" y="175"></rect>
<rect width="25" height="25" x="182.5" y="175"></rect>
<rect width="25" height="25" x="232.5" y="175"></rect>

</g>
</svg>
