<?xml version="1.0" encoding="UTF-8" standalone="no"?>
<svg width="290mm" height="195mm" viewBox="0 0 290 195" version="1.1" id="svg5" xmlns="http://www.w3.org/2000/svg" xmlns:svg="http://www.w3.org/2000/svg">
<g id="checkers">
<rect width="20" height="20" x="5" y="7.5"></rect>
<rect width="20" height="20" x="45" y="7.5"></rect>
<rect width="20" height="20" x="85" y="7.5"></rect>
<rect width="20" height="20" x="125" y="7.5"></rect>
<rect width="20" height="20" x="165" y="7.5"></rect>
<rect width="20" height="20" x="205" y="7.5"></rect>
<rect width="20" height="20" x="245" y="7.5"></rect>
<rect width="20" height="20" x="25" y="27.5"></rect>
<rect width="20" height="20" x="65" y="27.5"></rect>
<rect width="20" height="20" x="105" y="27.5"></rect>
<rect width="20" height="20" x="145" y="27.5"></rect>
<rect width="20" height="20" x="185" y="27.5"></rect>
<rect width="20" height="20" x="225" y="27.5"></rect>
<rect width="20" height="20" x="265" y="27.5"></rect>
<rect width="20" height="20" x="5" y="47.5"></rect>
<rect width="20" height="20" x="45" y="47.5"></rect>
<rect width="20" height="20" x="85" y="47.5"></rect>
<rect width="20" height="20" x="125" y="47.5"></rect>
<rect width="20" height="20" x="165" y="47.5"></rect>
<rect width="20" height="20" x="205" y="47.5"></rect>
<rect width="20" height="20" x="245" y="47.5"></rect>
<rect width="20" height="20" x="25" y="67.5"></rect>
<rect width="20" height="20" x="65" y="67.5"></rect>
<rect width="20" height="20" x="105" y="67.5"></rect>
<rect width="20" height="20" x="145" y="67.5"></rect>
<rect width="20" height="20" x="185" y="67.5"></rect>
<rect width="20" height="20" x="225" y="67.5"></rect>
<rect width="20" height="20" x="265" y="67.5"></rect>
<rect width="20" height="20" x="5" y="87.5"></rect>
<rect width="20" height="20" x="45" y="87.5"></rect>
<rect width="20" height="20" x="85" y="87.5"></rect>
<rect width="20" height="20" x="125" y="87.5"></rect>
<rect width="20" height="20" x="165" y="87.5"></rect>
<rect width="20" height="20" x="205" y="87.5"></rect>
<rect width="20" height="20" x="245" y="87.5"></rect>
<rect width="20" height="20" x="25" y="107.5"></rect>
<rect width="20" height="20" x="65" y="107.5"></rect>
<rect width="20" height="20" x="105" y="107.5"></rect>
<rect width="20" height="20" x="145" y="107.5"></rect>
<rect width="20" height="20" x="185" y="107.5"></rect>
<rect width="20" height="20" x="225" y="107.5"></rect>
<rect width="20" height="20" x="265" y="107.5"></rect>
<rect width="20" height="20" x="5" y="127.5"></rect>
<rect width="20" height="20" x="45" y="127.5"></rect>
<rect width="20" height="20" x="85" y="127.5"></rect>
<rect width="20" height="20" x="125" y="127.5"></rect>
<rect width="20" height="20" x="165" y="127.5"></rect>
<rect width="20" height="20" x="205" y="127.5"></rect>
<rect width="20" height="20" x="245" y="127.5"></rect>
<rect width="20" height="20" x="25" y="147.5"></rect>
<rect width="20" height="20" x="65" y="147.5"></rect>
<rect width="20" height="20" x="105" y="147.5"></rect>
<rect width="20" height="20" x="145" y="147.5"></rect>
<rect width="20" height="20" x="185" y="147.5"></rect>
<rect width="20" height="20" x="225" y="147.5"></rect>
<rect width="20" height="20" x="265" y="147.5"></rect>
<rect width="20" height="20" x="5" y="167.5"></rect>
<rect width="20" height="20" x="45" y="167.5"></rect>
<rect width="20" height="20" x="85" y="167.5"></rect>
<rect width="20" height="20" x="125" y="167.5"></rect>
<rect width="20" height="20" x="165" y="167.5"></rect>
<rect width="20" height="20" x="205" y="167.5"></rect>
<rect width="20" height="20" x="245" y="167.5"></rect>

</g>
</svg>
